<svg width="64" height="64" viewBox="0 0 64 64" fill="none" xmlns="http://www.w3.org/2000/svg">
<rect width="64" height="64" rx="10" fill="#3EA977" fill-opacity="0.7"/>
<path d="M51.2812 34.75C51.2812 35.0235 51.1726 35.2858 50.9792 35.4792C50.7858 35.6726 50.5235 35.7812 50.25 35.7812C49.9765 35.7812 49.7142 35.6726 49.5208 35.4792C49.3274 35.2858 49.2188 35.0235 49.2188 34.75C49.2137 30.2843 47.4375 26.0029 44.2798 22.8452C41.1221 19.6875 36.8407 17.9113 32.375 17.9062C28.2738 17.9108 24.3419 19.542 21.442 22.442C18.542 25.3419 16.9108 29.2738 16.9062 33.375C16.9108 37.1115 18.3971 40.6937 21.0392 43.3358C23.6813 45.9779 27.2635 47.4642 31 47.4688C34.372 47.4647 37.6047 46.1233 39.989 43.739C42.3733 41.3547 43.7147 38.122 43.7188 34.75C43.7151 31.7426 42.5188 28.8594 40.3922 26.7328C38.2656 24.6062 35.3824 23.4099 32.375 23.4062C29.7321 23.4094 27.1984 24.4607 25.3295 26.3295C23.4607 28.1984 22.4094 30.7321 22.4062 33.375C22.409 35.6534 23.3153 37.8376 24.9263 39.4487C26.5374 41.0597 28.7216 41.966 31 41.9688C32.9145 41.9688 34.7506 41.2082 36.1044 39.8544C37.4582 38.5006 38.2188 36.6645 38.2188 34.75C38.2188 33.2001 37.6031 31.7138 36.5072 30.6178C35.4112 29.5219 33.9249 28.9062 32.375 28.9062C31.1898 28.9062 30.0532 29.3771 29.2151 30.2151C28.3771 31.0532 27.9062 32.1898 27.9062 33.375C27.9062 34.1955 28.2322 34.9824 28.8124 35.5626C29.3926 36.1428 30.1795 36.4688 31 36.4688C31.4558 36.4688 31.893 36.2877 32.2153 35.9653C32.5377 35.643 32.7188 35.2058 32.7188 34.75C32.7188 34.6588 32.6825 34.5714 32.6181 34.5069C32.5536 34.4425 32.4662 34.4062 32.375 34.4062C32.1015 34.4062 31.8392 34.2976 31.6458 34.1042C31.4524 33.9108 31.3438 33.6485 31.3438 33.375C31.3438 33.1015 31.4524 32.8392 31.6458 32.6458C31.8392 32.4524 32.1015 32.3438 32.375 32.3438C33.0132 32.3438 33.6252 32.5973 34.0765 33.0485C34.5277 33.4998 34.7812 34.1118 34.7812 34.75C34.7812 35.7528 34.3829 36.7146 33.6737 37.4237C32.9646 38.1329 32.0028 38.5312 31 38.5312C29.6325 38.5312 28.321 37.988 27.354 37.021C26.387 36.054 25.8438 34.7425 25.8438 33.375C25.8438 31.6428 26.5319 29.9816 27.7567 28.7567C28.9816 27.5319 30.6428 26.8438 32.375 26.8438C34.471 26.8465 36.4804 27.6803 37.9626 29.1625C39.4447 30.6446 40.2785 32.654 40.2812 34.75C40.2785 37.2107 39.2998 39.5698 37.5598 41.3098C35.8198 43.0498 33.4607 44.0285 31 44.0312C28.1748 44.0281 25.4662 42.9043 23.4684 40.9066C21.4707 38.9088 20.3469 36.2002 20.3438 33.375C20.3474 30.1852 21.6161 27.1271 23.8716 24.8716C26.1271 22.6161 29.1852 21.3474 32.375 21.3438C35.9293 21.3478 39.3369 22.7616 41.8501 25.2749C44.3634 27.7881 45.7772 31.1957 45.7812 34.75C45.7767 38.6688 44.2179 42.4259 41.4469 45.1969C38.6759 47.9679 34.9188 49.5267 31 49.5312C26.7166 49.5262 22.6101 47.8225 19.5813 44.7937C16.5525 41.7649 14.8488 37.6584 14.8438 33.375C14.8492 28.7271 16.698 24.2711 19.9846 20.9846C23.2711 17.698 27.7271 15.8492 32.375 15.8438C37.3874 15.8497 42.1929 17.8435 45.7372 21.3878C49.2815 24.9321 51.2753 29.7376 51.2812 34.75Z" fill="white"/>
</svg>
