<svg width="64" height="64" viewBox="0 0 64 64" fill="none" xmlns="http://www.w3.org/2000/svg">
<rect width="64" height="64" rx="10" fill="#10AAAA" fill-opacity="0.7"/>
<path fill-rule="evenodd" clip-rule="evenodd" d="M50.6258 19.5837L48.4808 19.0777L42.6838 24.8417L39.4003 21.4977L45.0543 15.5659L44.5593 13.3879C43.3645 12.9882 42.1148 12.7767 40.855 12.7609C39.4807 12.7398 38.1168 13.0019 36.8483 13.5309C35.6234 14.0854 34.5163 14.8695 33.5868 15.8409C32.5521 16.8211 31.7326 18.0058 31.1805 19.3197C30.1175 21.9346 30.1175 24.8613 31.1805 27.4762C25.4474 33.1164 19.7884 38.8314 14.2048 44.6197C13.6273 45.3759 13.3523 46.3192 13.4238 47.2679C13.4801 48.2884 13.939 49.2448 14.6998 49.9272C15.0408 50.2985 15.4478 50.6064 15.9015 50.8292C16.369 51.0354 16.8723 51.1537 17.381 51.1784C18.25 51.1619 19.0833 50.832 19.7295 50.2517C23.9865 46.2449 32.143 38.0142 36.7768 33.1907C38.0335 33.7242 39.3838 33.9992 40.7478 33.9964C42.1208 33.9954 43.4797 33.7191 44.7441 33.1839C46.0085 32.6488 47.1529 31.8656 48.1095 30.8807C50.0745 28.8767 51.172 26.1799 51.1648 23.3732C51.1965 22.0889 51.0144 20.8082 50.6258 19.5837ZM18.0658 48.3019C17.9599 48.3959 17.8323 48.4621 17.6945 48.4944C17.5589 48.5179 17.4203 48.5179 17.2848 48.4944C17.1426 48.4728 17.0072 48.4192 16.8888 48.3377C16.7616 48.2633 16.6542 48.1596 16.5753 48.0352C16.1903 47.6419 15.83 46.8939 16.1903 46.4732C19.9578 42.4664 27.7155 34.6344 32.5665 29.8467C32.8415 30.2097 33.144 30.5562 33.4685 30.8807C33.793 31.2189 34.1423 31.5324 34.5135 31.8184C29.822 36.6309 22.1688 44.3695 18.0658 48.3019ZM48.6403 23.3732C48.6458 25.4769 47.8263 27.4982 46.3523 29.0052C44.8814 30.4481 42.9031 31.2564 40.8426 31.2564C38.7822 31.2564 36.8039 30.4481 35.333 29.0052C34.255 27.8802 33.5185 26.4721 33.2094 24.945C32.9003 23.4178 33.0311 21.8342 33.5868 20.3784C33.9566 19.3877 34.5303 18.4856 35.2707 17.7306C36.0111 16.9755 36.9017 16.3842 37.885 15.9949C38.8186 15.6042 39.8209 15.4041 40.833 15.4064H41.5315L36.5348 20.5572V22.4712L41.746 27.6577H43.561L48.6403 22.6637V23.3732ZM18.91 28.3919H23.1203L25.059 30.3637L26.9235 28.5102L25.0948 26.6457V26.5274L25.2515 21.9927L24.6465 20.7909L16.7815 15.6154L15.1563 15.7969L12.871 18.1317L12.6895 19.7789L17.744 27.8034L18.91 28.3919ZM16.3113 18.4039L22.6748 22.5949L22.5675 25.6832H19.6085L15.5055 19.1877L16.3113 18.4039ZM35.85 37.5439L37.7035 35.6932L46.245 44.4519C46.9645 45.2081 47.3657 46.2119 47.3657 47.2556C47.3657 48.2993 46.9645 49.3031 46.245 50.0592C45.704 50.6146 45.0084 50.9942 44.2486 51.1488C43.4889 51.3033 42.7002 51.2254 41.9853 50.9254C41.529 50.7231 41.1198 50.4281 40.7835 50.0592L32.143 41.2509L34.0103 39.3864L42.6233 48.1699C42.7391 48.2977 42.8832 48.3966 43.044 48.4587C43.3605 48.5873 43.7147 48.5873 44.0313 48.4587C44.1921 48.3965 44.3361 48.2976 44.452 48.1699C44.5724 48.0507 44.6661 47.9073 44.727 47.7492C44.7901 47.5878 44.8236 47.4164 44.826 47.2432C44.8233 47.0703 44.7907 46.8991 44.7298 46.7372C44.6689 46.5791 44.5751 46.4357 44.4548 46.3165L35.85 37.5439Z" fill="white"/>
</svg>
