<svg width="64" height="64" viewBox="0 0 64 64" fill="none" xmlns="http://www.w3.org/2000/svg">
<rect width="64" height="64" rx="10" fill="#6AAB48" fill-opacity="0.7"/>
<path d="M35.6667 15.9932C35.6667 14.7081 34.6254 13.6667 33.3402 13.6667H30.6617C29.3747 13.6667 28.3334 14.7081 28.3334 15.9932C28.3334 17.0529 27.6074 17.9622 26.6192 18.3509C26.4634 18.4132 26.3075 18.4792 26.1554 18.5452C25.1819 18.9669 24.025 18.8386 23.2734 18.0887C22.8371 17.6528 22.2456 17.4079 21.6289 17.4079C21.0121 17.4079 20.4206 17.6528 19.9844 18.0887L18.0887 19.9844C17.6527 20.4207 17.4079 21.0122 17.4079 21.6289C17.4079 22.2457 17.6527 22.8372 18.0887 23.2734C18.8404 24.0251 18.9687 25.1801 18.5434 26.1554C18.4765 26.3089 18.4124 26.4635 18.3509 26.6192C17.9622 27.6074 17.0529 28.3334 15.9932 28.3334C14.708 28.3334 13.6667 29.3747 13.6667 30.6599V33.3402C13.6667 34.6254 14.708 35.6667 15.9932 35.6667C17.0529 35.6667 17.9622 36.3927 18.3509 37.3809C18.4132 37.5367 18.4792 37.6926 18.5434 37.8447C18.9669 38.8182 18.8385 39.9751 18.0887 40.7267C17.6527 41.163 17.4079 41.7545 17.4079 42.3712C17.4079 42.988 17.6527 43.5795 18.0887 44.0158L19.9844 45.9114C20.4206 46.3474 21.0121 46.5922 21.6289 46.5922C22.2456 46.5922 22.8371 46.3474 23.2734 45.9114C24.025 45.1597 25.18 45.0314 26.1554 45.4549C26.3075 45.5228 26.4634 45.5869 26.6192 45.6492C27.6074 46.0379 28.3334 46.9473 28.3334 48.0069C28.3334 49.2921 29.3747 50.3334 30.6599 50.3334H33.3402C34.6254 50.3334 35.6667 49.2921 35.6667 48.0069C35.6667 46.9473 36.3927 46.0379 37.3809 45.6474C37.5367 45.5869 37.6925 45.5227 37.8447 45.4567C38.8182 45.0314 39.975 45.1616 40.7249 45.9114C40.9409 46.1275 41.1974 46.299 41.4797 46.416C41.7621 46.533 42.0647 46.5932 42.3703 46.5932C42.6759 46.5932 42.9785 46.533 43.2608 46.416C43.5431 46.299 43.7996 46.1275 44.0157 45.9114L45.9114 44.0158C46.3473 43.5795 46.5922 42.988 46.5922 42.3712C46.5922 41.7545 46.3473 41.163 45.9114 40.7267C45.1597 39.9751 45.0314 38.8201 45.4549 37.8447C45.5227 37.6926 45.5869 37.5367 45.6492 37.3809C46.0379 36.3927 46.9472 35.6667 48.0069 35.6667C49.292 35.6667 50.3334 34.6254 50.3334 33.3402V30.6617C50.3334 29.3766 49.292 28.3352 48.0069 28.3352C46.9472 28.3352 46.0379 27.6092 45.6474 26.6211C45.5859 26.4653 45.5217 26.3107 45.4549 26.1572C45.0332 25.1837 45.1615 24.0269 45.9114 23.2752C46.3473 22.839 46.5922 22.2475 46.5922 21.6307C46.5922 21.014 46.3473 20.4225 45.9114 19.9862L44.0157 18.0906C43.5794 17.6546 42.9879 17.4097 42.3712 17.4097C41.7544 17.4097 41.1629 17.6546 40.7267 18.0906C39.975 18.8422 38.82 18.9706 37.8447 18.5471C37.6912 18.4796 37.5366 18.4148 37.3809 18.3527C36.3927 17.9622 35.6667 17.0511 35.6667 15.9932Z" stroke="white" stroke-width="2"/>
<path d="M39.3334 32.0001C39.3334 33.945 38.5607 35.8103 37.1855 37.1855C35.8102 38.5608 33.9449 39.3334 32 39.3334C30.0551 39.3334 28.1898 38.5608 26.8146 37.1855C25.4393 35.8103 24.6667 33.945 24.6667 32.0001C24.6667 30.0552 25.4393 28.1899 26.8146 26.8146C28.1898 25.4394 30.0551 24.6667 32 24.6667C33.9449 24.6667 35.8102 25.4394 37.1855 26.8146C38.5607 28.1899 39.3334 30.0552 39.3334 32.0001Z" stroke="white" stroke-width="2"/>
</svg>
