<svg width="64" height="64" viewBox="0 0 64 64" fill="none" xmlns="http://www.w3.org/2000/svg">
<rect width="64" height="64" rx="10" fill="#27A68D" fill-opacity="0.7"/>
<path d="M15.5 12.75H12.75V48.5C12.75 49.2293 13.0397 49.9288 13.5555 50.4445C14.0712 50.9603 14.7707 51.25 15.5 51.25H51.25V48.5H15.5V12.75Z" fill="white"/>
<path d="M51.25 22.375H41.625V25.125H46.5613L36.125 35.5613L30.2262 29.6487C30.0984 29.5199 29.9463 29.4176 29.7788 29.3478C29.6112 29.278 29.4315 29.242 29.25 29.242C29.0685 29.242 28.8888 29.278 28.7212 29.3478C28.5537 29.4176 28.4016 29.5199 28.2738 29.6487L18.25 39.6863L20.1887 41.625L29.25 32.5637L35.1488 38.4762C35.2766 38.6051 35.4286 38.7074 35.5962 38.7772C35.7638 38.847 35.9435 38.883 36.125 38.883C36.3065 38.883 36.4862 38.847 36.6538 38.7772C36.8214 38.7074 36.9734 38.6051 37.1012 38.4762L48.5 27.0637V32H51.25V22.375Z" fill="white"/>
</svg>
