<svg width="64" height="64" viewBox="0 0 64 64" fill="none" xmlns="http://www.w3.org/2000/svg">
<rect width="64" height="64" rx="10" fill="#54A85E" fill-opacity="0.7"/>
<g clip-path="url(#clip0_0_1)">
<path d="M40.5556 14.8889H23.4444C22.7961 14.8889 22.1744 15.1465 21.716 15.6049C21.2575 16.0633 21 16.6851 21 17.3334V46.6667C21 47.315 21.2575 47.9368 21.716 48.3952C22.1744 48.8536 22.7961 49.1111 23.4444 49.1111H40.5556C41.2039 49.1111 41.8256 48.8536 42.284 48.3952C42.7425 47.9368 43 47.315 43 46.6667V17.3334C43 16.6851 42.7425 16.0633 42.284 15.6049C41.8256 15.1465 41.2039 14.8889 40.5556 14.8889ZM23.4444 17.3334H40.5556V39.3334H23.4444V17.3334ZM23.4444 46.6667V41.7778H40.5556V46.6667H23.4444Z" fill="white"/>
<path d="M30.7778 43H33.2222V45.4444H30.7778V43Z" fill="white"/>
</g>
<defs>
<clipPath id="clip0_0_1">
<rect width="44" height="44" fill="white" transform="translate(10 10)"/>
</clipPath>
</defs>
</svg>
